# File produced by Open Asset Import Library (http://www.assimp.sf.net)
# (assimp v3.0.1262)

mtllib icosahedron.stl.obj.mtl

# 360 vertex positions
v  -36.434 37.406 62.12
v  -37.834 27.13 69.452
v  -17.238 29.556 76.784
v  -36.434 37.406 62.12
v  -17.238 29.556 76.784
v  -12.706 37.406 53.056
v  -58.432 24.706 62.12
v  -55.63 45.254 47.454
v  -67.494 24.706 38.392
v  -39.236 -8.544 76.784
v  -39.236 4.156 76.784
v  -61.232 4.156 76.784
v  -31.902 45.254 38.392
v  -8.176 45.254 29.328
v  -27.372 37.406 14.664
v  -51.1 37.406 23.726
v  -46.568 29.556 0
v  -57.032 27.13 19.196
v  -0.842 16.856 62.12
v  -6.774 27.13 57.588
v  -17.238 29.556 76.784
v  -17.238 4.156 76.784
v  -17.238 -21.244 76.784
v  -0.842 -8.544 62.12
v  -70.296 4.156 53.056
v  -79.358 4.156 29.328
v  -67.494 -16.394 38.392
v  -36.434 -29.094 62.12
v  -58.432 -16.394 62.12
v  -55.63 -36.942 47.454
v  -5.374 24.706 14.664
v  -27.372 37.406 14.664
v  -8.176 45.254 29.328
v  -46.568 4.156 0
v  -62.964 16.856 14.664
v  -46.568 29.556 0
v  3.69 24.706 38.392
v  15.554 4.156 47.454
v  6.49 4.156 23.726
v  -0.842 -8.544 62.12
v  -17.238 -21.244 76.784
v  -12.706 -29.094 53.056
v  -51.1 -29.094 23.726
v  -62.964 -8.544 14.664
v  -46.568 -21.244 0
v  -36.434 -29.094 62.12
v  -55.63 -36.942 47.454
v  -31.902 -36.942 38.392
v  -24.57 16.856 0
v  -2.574 4.156 0
v  -24.57 4.156 0
v  3.69 -16.394 38.392
v  -8.176 -36.942 29.328
v  -0.842 -16.394 26.528
v  -51.1 -29.094 23.726
v  -46.568 -21.244 0
v  -27.372 -29.094 14.664
v  -24.57 -8.544 0
v  -2.574 4.156 0
v  -14.972 -12.468 7.332
v  -12.706 37.406 53.056
v  -17.238 29.556 76.784
v  -6.774 27.13 57.588
v  3.69 24.706 38.392
v  -5.374 24.706 14.664
v  -8.176 45.254 29.328
v  -5.374 24.706 14.664
v  -2.574 4.156 0
v  -24.57 16.856 0
v  -5.374 24.706 14.664
v  0.558 14.43 19.196
v  -2.574 4.156 0
v  -58.432 24.706 62.12
v  -61.232 4.156 76.784
v  -39.236 16.856 76.784
v  -70.296 4.156 53.056
v  -68.896 14.43 45.724
v  -79.358 4.156 29.328
v  -58.432 24.706 62.12
v  -36.434 37.406 62.12
v  -55.63 45.254 47.454
v  -31.902 45.254 38.392
v  -22.304 41.33 45.724
v  -8.176 45.254 29.328
v  -12.706 37.406 53.056
v  -8.176 45.254 29.328
v  -22.304 41.33 45.724
v  3.69 24.706 38.392
v  -8.176 45.254 29.328
v  -12.706 37.406 53.056
v  -36.434 37.406 62.12
v  -31.902 45.254 38.392
v  -55.63 45.254 47.454
v  -51.1 37.406 23.726
v  -39.236 37.406 19.196
v  -46.568 29.556 0
v  -58.432 24.706 62.12
v  -70.296 4.156 53.056
v  -61.232 4.156 76.784
v  -58.432 -16.394 62.12
v  -62.964 -16.394 50.256
v  -55.63 -36.942 47.454
v  -67.494 24.706 38.392
v  -79.358 4.156 29.328
v  -68.896 14.43 45.724
v  -62.964 16.856 14.664
v  -57.032 27.13 19.196
v  -46.568 29.556 0
v  -39.236 16.856 76.784
v  -61.232 4.156 76.784
v  -39.236 4.156 76.784
v  -17.238 4.156 76.784
v  -0.842 16.856 62.12
v  -17.238 29.556 76.784
v  -27.372 37.406 14.664
v  -46.568 29.556 0
v  -39.236 37.406 19.196
v  -27.372 37.406 14.664
v  -25.97 27.13 7.332
v  -46.568 29.556 0
v  -31.902 45.254 38.392
v  -51.1 37.406 23.726
v  -55.63 45.254 47.454
v  -67.494 24.706 38.392
v  -55.63 45.254 47.454
v  -51.1 37.406 23.726
v  3.69 24.706 38.392
v  -0.842 16.856 62.12
v  15.554 4.156 47.454
v  -0.842 16.856 62.12
v  -0.842 4.156 62.12
v  15.554 4.156 47.454
v  -0.842 -8.544 62.12
v  15.554 4.156 47.454
v  -0.842 4.156 62.12
v  3.69 -16.394 38.392
v  -4.508 -22.744 45.724
v  -8.176 -36.942 29.328
v  -39.236 -8.544 76.784
v  -61.232 4.156 76.784
v  -48.834 -12.468 69.452
v  -36.434 -29.094 62.12
v  -12.706 -29.094 53.056
v  -17.238 -21.244 76.784
v  -46.568 4.156 0
v  -46.568 -21.244 0
v  -62.964 -8.544 14.664
v  -24.57 -8.544 0
v  -24.57 4.156 0
v  -2.574 4.156 0
v  6.49 4.156 23.726
v  -2.574 4.156 0
v  0.558 14.43 19.196
v  -5.374 -16.394 14.664
v  -0.842 -16.394 26.528
v  -8.176 -36.942 29.328
v  -12.706 -29.094 53.056
v  -8.176 -36.942 29.328
v  -4.508 -22.744 45.724
v  -12.706 -29.094 53.056
v  -22.304 -33.018 45.724
v  -8.176 -36.942 29.328
v  -67.494 -16.394 38.392
v  -79.358 4.156 29.328
v  -65.23 -12.468 26.528
v  -51.1 -29.094 23.726
v  -31.902 -36.942 38.392
v  -55.63 -36.942 47.454
v  -31.902 -36.942 38.392
v  -8.176 -36.942 29.328
v  -22.304 -33.018 45.724
v  -31.902 -36.942 38.392
v  -29.638 -33.018 26.528
v  -8.176 -36.942 29.328
v  -27.372 -29.094 14.664
v  -8.176 -36.942 29.328
v  -29.638 -33.018 26.528
v  -27.372 -29.094 14.664
v  -5.374 -16.394 14.664
v  -8.176 -36.942 29.328
v  -39.236 16.856 76.784
v  -17.238 29.556 76.784
v  -37.834 27.13 69.452
v  -17.238 4.156 76.784
v  -17.238 29.556 76.784
v  -39.236 16.856 76.784
v  -17.238 4.156 76.784
v  -39.236 -8.544 76.784
v  -17.238 -21.244 76.784
v  -36.434 -29.094 62.12
v  -17.238 -21.244 76.784
v  -39.236 -8.544 76.784
v  -67.494 24.706 38.392
v  -62.964 16.856 14.664
v  -79.358 4.156 29.328
v  -62.964 16.856 14.664
v  -62.964 4.156 14.664
v  -79.358 4.156 29.328
v  -67.494 -16.394 38.392
v  -55.63 -36.942 47.454
v  -62.964 -16.394 50.256
v  -51.1 -29.094 23.726
v  -55.63 -36.942 47.454
v  -67.494 -16.394 38.392
v  -70.296 4.156 53.056
v  -58.432 -16.394 62.12
v  -61.232 4.156 76.784
v  -58.432 -16.394 62.12
v  -48.834 -12.468 69.452
v  -61.232 4.156 76.784
v  -24.57 16.856 0
v  -46.568 29.556 0
v  -25.97 27.13 7.332
v  -46.568 4.156 0
v  -46.568 29.556 0
v  -24.57 16.856 0
v  -62.964 -8.544 14.664
v  -79.358 4.156 29.328
v  -62.964 4.156 14.664
v  -62.964 -8.544 14.664
v  -65.23 -12.468 26.528
v  -79.358 4.156 29.328
v  -0.842 -8.544 62.12
v  3.69 -16.394 38.392
v  15.554 4.156 47.454
v  6.49 4.156 23.726
v  15.554 4.156 47.454
v  3.69 -16.394 38.392
v  -46.568 4.156 0
v  -24.57 -8.544 0
v  -46.568 -21.244 0
v  -27.372 -29.094 14.664
v  -46.568 -21.244 0
v  -24.57 -8.544 0
v  6.49 4.156 23.726
v  -5.374 -16.394 14.664
v  -2.574 4.156 0
v  -5.374 -16.394 14.664
v  -14.972 -12.468 7.332
v  -2.574 4.156 0
v  -12.706 37.406 53.056
v  -22.304 41.33 45.724
v  -36.434 37.406 62.12
v  -31.902 45.254 38.392
v  -36.434 37.406 62.12
v  -22.304 41.33 45.724
v  -31.902 -36.942 38.392
v  -22.304 -33.018 45.724
v  -36.434 -29.094 62.12
v  -12.706 -29.094 53.056
v  -36.434 -29.094 62.12
v  -22.304 -33.018 45.724
v  -0.842 16.856 62.12
v  3.69 24.706 38.392
v  -6.774 27.13 57.588
v  -12.706 37.406 53.056
v  -6.774 27.13 57.588
v  3.69 24.706 38.392
v  6.49 4.156 23.726
v  0.558 14.43 19.196
v  3.69 24.706 38.392
v  -5.374 24.706 14.664
v  3.69 24.706 38.392
v  0.558 14.43 19.196
v  -27.372 37.406 14.664
v  -5.374 24.706 14.664
v  -25.97 27.13 7.332
v  -24.57 16.856 0
v  -25.97 27.13 7.332
v  -5.374 24.706 14.664
v  -67.494 24.706 38.392
v  -68.896 14.43 45.724
v  -58.432 24.706 62.12
v  -70.296 4.156 53.056
v  -58.432 24.706 62.12
v  -68.896 14.43 45.724
v  -27.372 37.406 14.664
v  -39.236 37.406 19.196
v  -31.902 45.254 38.392
v  -51.1 37.406 23.726
v  -31.902 45.254 38.392
v  -39.236 37.406 19.196
v  -51.1 37.406 23.726
v  -57.032 27.13 19.196
v  -67.494 24.706 38.392
v  -62.964 16.856 14.664
v  -67.494 24.706 38.392
v  -57.032 27.13 19.196
v  -0.842 -8.544 62.12
v  -0.842 4.156 62.12
v  -17.238 4.156 76.784
v  -0.842 16.856 62.12
v  -17.238 4.156 76.784
v  -0.842 4.156 62.12
v  -12.706 -29.094 53.056
v  -4.508 -22.744 45.724
v  -0.842 -8.544 62.12
v  3.69 -16.394 38.392
v  -0.842 -8.544 62.12
v  -4.508 -22.744 45.724
v  -27.372 -29.094 14.664
v  -29.638 -33.018 26.528
v  -51.1 -29.094 23.726
v  -31.902 -36.942 38.392
v  -51.1 -29.094 23.726
v  -29.638 -33.018 26.528
v  -36.434 37.406 62.12
v  -58.432 24.706 62.12
v  -37.834 27.13 69.452
v  -39.236 16.856 76.784
v  -37.834 27.13 69.452
v  -58.432 24.706 62.12
v  -67.494 -16.394 38.392
v  -62.964 -16.394 50.256
v  -70.296 4.156 53.056
v  -58.432 -16.394 62.12
v  -70.296 4.156 53.056
v  -62.964 -16.394 50.256
v  -39.236 -8.544 76.784
v  -17.238 4.156 76.784
v  -39.236 4.156 76.784
v  -39.236 16.856 76.784
v  -39.236 4.156 76.784
v  -17.238 4.156 76.784
v  -58.432 -16.394 62.12
v  -36.434 -29.094 62.12
v  -48.834 -12.468 69.452
v  -39.236 -8.544 76.784
v  -48.834 -12.468 69.452
v  -36.434 -29.094 62.12
v  -62.964 16.856 14.664
v  -46.568 4.156 0
v  -62.964 4.156 14.664
v  -62.964 -8.544 14.664
v  -62.964 4.156 14.664
v  -46.568 4.156 0
v  -24.57 16.856 0
v  -24.57 4.156 0
v  -46.568 4.156 0
v  -24.57 -8.544 0
v  -46.568 4.156 0
v  -24.57 4.156 0
v  3.69 -16.394 38.392
v  -0.842 -16.394 26.528
v  6.49 4.156 23.726
v  -5.374 -16.394 14.664
v  6.49 4.156 23.726
v  -0.842 -16.394 26.528
v  -62.964 -8.544 14.664
v  -51.1 -29.094 23.726
v  -65.23 -12.468 26.528
v  -67.494 -16.394 38.392
v  -65.23 -12.468 26.528
v  -51.1 -29.094 23.726
v  -24.57 -8.544 0
v  -14.972 -12.468 7.332
v  -27.372 -29.094 14.664
v  -5.374 -16.394 14.664
v  -27.372 -29.094 14.664
v  -14.972 -12.468 7.332

# 0 UV coordinates

# 360 vertex normals
vn -0.333355 0.57727 0.745408
vn -0.333355 0.57727 0.745408
vn -0.333355 0.57727 0.745408
vn 0.127347 0.934155 0.333372
vn 0.127347 0.934155 0.333372
vn 0.127347 0.934155 0.333372
vn -0.872673 0.35688 0.333284
vn -0.872673 0.35688 0.333284
vn -0.872673 0.35688 0.333284
vn 0 -0 1
vn 0 -0 1
vn 0 -0 1
vn -0.127326 0.934187 -0.333289
vn -0.127326 0.934187 -0.333289
vn -0.127326 0.934187 -0.333289
vn -0.745406 0.577262 -0.333376
vn -0.745406 0.577262 -0.333376
vn -0.745406 0.577262 -0.333376
vn 0.745339 0.577377 0.333325
vn 0.745339 0.577377 0.333325
vn 0.745339 0.577377 0.333325
vn 0.666641 0 0.745379
vn 0.666641 0 0.745379
vn 0.666641 0 0.745379
vn -0.872694 -0.356822 0.333292
vn -0.872694 -0.356822 0.333292
vn -0.872694 -0.356822 0.333292
vn -0.333354 -0.57741 0.7453
vn -0.333354 -0.57741 0.7453
vn -0.333354 -0.57741 0.7453
vn 0.333328 0.577367 -0.745345
vn 0.333328 0.577367 -0.745345
vn 0.333328 0.577367 -0.745345
vn -0.666641 0 -0.745379
vn -0.666641 0 -0.745379
vn -0.666641 0 -0.745379
vn 0.872673 0.356813 -0.333357
vn 0.872673 0.356813 -0.333357
vn 0.872673 0.356813 -0.333357
vn 0.745347 -0.577344 0.333364
vn 0.745347 -0.577344 0.333364
vn 0.745347 -0.577344 0.333364
vn -0.745352 -0.577324 -0.333387
vn -0.745352 -0.577324 -0.333387
vn -0.745352 -0.577324 -0.333387
vn 0.127289 -0.934191 0.333294
vn 0.127289 -0.934191 0.333294
vn 0.127289 -0.934191 0.333294
vn 0 0 -1
vn 0 0 -1
vn 0 0 -1
vn 0.872645 -0.356889 -0.333347
vn 0.872645 -0.356889 -0.333347
vn 0.872645 -0.356889 -0.333347
vn -0.127327 -0.93415 -0.333395
vn -0.127327 -0.93415 -0.333395
vn -0.127327 -0.93415 -0.333395
vn 0.333345 -0.577344 -0.745356
vn 0.333345 -0.577344 -0.745356
vn 0.333345 -0.577344 -0.745356
vn 0.745381 0.577304 0.333357
vn 0.745381 0.577304 0.333357
vn 0.745381 0.577304 0.333357
vn 0.872645 0.356889 -0.333347
vn 0.872645 0.356889 -0.333347
vn 0.872645 0.356889 -0.333347
vn 0.333326 0.57731 -0.745391
vn 0.333326 0.57731 -0.745391
vn 0.333326 0.57731 -0.745391
vn 0.872698 0.356769 -0.333337
vn 0.872698 0.356769 -0.333337
vn 0.872698 0.356769 -0.333337
vn -0.333326 0.57731 0.745391
vn -0.333326 0.57731 0.745391
vn -0.333326 0.57731 0.745391
vn -0.87271 0.356778 0.333298
vn -0.87271 0.356778 0.333298
vn -0.87271 0.356778 0.333298
vn -0.333354 0.57741 0.7453
vn -0.333354 0.57741 0.7453
vn -0.333354 0.57741 0.7453
vn 0.127326 0.934187 0.333289
vn 0.127326 0.934187 0.333289
vn 0.127326 0.934187 0.333289
vn 0.127326 0.934187 0.333289
vn 0.127326 0.934187 0.333289
vn 0.127326 0.934187 0.333289
vn 0.745327 0.577421 0.333274
vn 0.745327 0.577421 0.333274
vn 0.745327 0.577421 0.333274
vn 0.127289 0.934191 0.333294
vn 0.127289 0.934191 0.333294
vn 0.127289 0.934191 0.333294
vn -0.127298 0.934155 -0.333391
vn -0.127298 0.934155 -0.333391
vn -0.127298 0.934155 -0.333391
vn -0.872683 0.356785 0.333361
vn -0.872683 0.356785 0.333361
vn -0.872683 0.356785 0.333361
vn -0.872635 -0.356917 0.333343
vn -0.872635 -0.356917 0.333343
vn -0.872635 -0.356917 0.333343
vn -0.872701 0.356843 0.333251
vn -0.872701 0.356843 0.333251
vn -0.872701 0.356843 0.333251
vn -0.745339 0.577378 -0.333325
vn -0.745339 0.577378 -0.333325
vn -0.745339 0.577378 -0.333325
vn 0 0 1
vn 0 -0 1
vn 0 -0 1
vn 0.666641 0 0.745379
vn 0.666641 -0 0.745379
vn 0.666641 -0 0.745379
vn -0.127347 0.934155 -0.333372
vn -0.127347 0.934155 -0.333372
vn -0.127347 0.934155 -0.333372
vn 0.333321 0.577316 -0.745388
vn 0.333321 0.577316 -0.745388
vn 0.333321 0.577316 -0.745388
vn -0.127285 0.934195 -0.333284
vn -0.127285 0.934195 -0.333284
vn -0.127285 0.934195 -0.333284
vn -0.74539 0.577347 -0.333262
vn -0.74539 0.577347 -0.333262
vn -0.74539 0.577347 -0.333262
vn 0.745367 0.577321 0.33336
vn 0.745367 0.577321 0.33336
vn 0.745367 0.577321 0.33336
vn 0.666691 0 0.745334
vn 0.666691 0 0.745334
vn 0.666691 0 0.745334
vn 0.666691 -0 0.745334
vn 0.666691 0 0.745334
vn 0.666691 0 0.745334
vn 0.745327 -0.577421 0.333274
vn 0.745327 -0.577421 0.333274
vn 0.745327 -0.577421 0.333274
vn -0.333345 -0.577344 0.745356
vn -0.333345 -0.577344 0.745356
vn -0.333345 -0.577344 0.745356
vn 0.127347 -0.934155 0.333372
vn 0.127347 -0.934155 0.333372
vn 0.127347 -0.934155 0.333372
vn -0.666641 0 -0.745379
vn -0.666641 -0 -0.745379
vn -0.666641 -0 -0.745379
vn 0 0 -1
vn 0 0 -1
vn 0 0 -1
vn 0.872647 0.356857 -0.333376
vn 0.872647 0.356857 -0.333376
vn 0.872647 0.356857 -0.333376
vn 0.872645 -0.356889 -0.333347
vn 0.872645 -0.356889 -0.333347
vn 0.872645 -0.356889 -0.333347
vn 0.745327 -0.577421 0.333274
vn 0.745327 -0.577421 0.333274
vn 0.745327 -0.577421 0.333274
vn 0.127326 -0.934187 0.333289
vn 0.127326 -0.934187 0.333289
vn 0.127326 -0.934187 0.333289
vn -0.745387 -0.577335 -0.333292
vn -0.745387 -0.577335 -0.333292
vn -0.745387 -0.577335 -0.333292
vn -0.127285 -0.934195 -0.333284
vn -0.127285 -0.934195 -0.333284
vn -0.127285 -0.934195 -0.333284
vn 0.127326 -0.934187 0.333289
vn 0.127326 -0.934187 0.333289
vn 0.127326 -0.934187 0.333289
vn -0.127322 -0.934192 -0.333279
vn -0.127322 -0.934192 -0.333279
vn -0.127322 -0.934192 -0.333279
vn -0.127319 -0.934186 -0.333298
vn -0.127319 -0.934186 -0.333298
vn -0.127319 -0.934186 -0.333298
vn 0.333328 -0.577367 -0.745345
vn 0.333328 -0.577367 -0.745345
vn 0.333328 -0.577367 -0.745345
vn -0.33334 0.577386 0.745325
vn -0.33334 0.577386 0.745325
vn -0.33334 0.577386 0.745325
vn 0 -0 1
vn 0 -0 1
vn 0 0 1
vn 0 -0 1
vn 0 -0 1
vn 0 0 1
vn -0.333309 -0.577333 0.74538
vn -0.333309 -0.577333 0.74538
vn -0.333309 -0.577333 0.74538
vn -0.74538 0.577336 -0.333305
vn -0.74538 0.577336 -0.333305
vn -0.74538 0.577336 -0.333305
vn -0.666686 -0 -0.745339
vn -0.666686 -0 -0.745339
vn -0.666686 -0 -0.745339
vn -0.872684 -0.356917 0.333215
vn -0.872684 -0.356917 0.333215
vn -0.872684 -0.356917 0.333215
vn -0.74539 -0.577347 -0.333262
vn -0.74539 -0.577347 -0.333262
vn -0.74539 -0.577347 -0.333262
vn -0.872683 -0.356785 0.333361
vn -0.872683 -0.356785 0.333361
vn -0.872683 -0.356785 0.333361
vn -0.333277 -0.577316 0.745408
vn -0.333277 -0.577316 0.745408
vn -0.333277 -0.577316 0.745408
vn 0.333317 0.577347 -0.745366
vn 0.333317 0.577347 -0.745366
vn 0.333317 0.577347 -0.745366
vn 0 0 -1
vn 0 0 -1
vn 0 0 -1
vn -0.666686 0 -0.745339
vn -0.666686 -0 -0.745339
vn -0.666686 -0 -0.745339
vn -0.745382 -0.577326 -0.333316
vn -0.745382 -0.577326 -0.333316
vn -0.745382 -0.577326 -0.333316
vn 0.745367 -0.577321 0.33336
vn 0.745367 -0.577321 0.33336
vn 0.745367 -0.577321 0.33336
vn 0.872673 -0.356813 -0.333357
vn 0.872673 -0.356813 -0.333357
vn 0.872673 -0.356813 -0.333357
vn 0 0 -1
vn 0 0 -1
vn 0 0 -1
vn 0.333309 -0.577333 -0.74538
vn 0.333309 -0.577333 -0.74538
vn 0.333309 -0.577333 -0.74538
vn 0.872668 -0.356799 -0.333384
vn 0.872668 -0.356799 -0.333384
vn 0.872668 -0.356799 -0.333384
vn 0.333277 -0.577316 -0.745408
vn 0.333277 -0.577316 -0.745408
vn 0.333277 -0.577316 -0.745408
vn 0.127318 0.934185 0.333298
vn 0.127318 0.934185 0.333298
vn 0.127318 0.934185 0.333298
vn 0.127318 0.934185 0.333298
vn 0.127318 0.934185 0.333298
vn 0.127318 0.934185 0.333298
vn 0.127318 -0.934185 0.333298
vn 0.127318 -0.934185 0.333298
vn 0.127318 -0.934185 0.333298
vn 0.127318 -0.934185 0.333298
vn 0.127318 -0.934185 0.333298
vn 0.127318 -0.934185 0.333298
vn 0.745314 0.577383 0.333371
vn 0.745314 0.577383 0.333371
vn 0.745314 0.577383 0.333371
vn 0.745356 0.57731 0.333403
vn 0.745356 0.57731 0.333403
vn 0.745356 0.57731 0.333403
vn 0.872643 0.356842 -0.333404
vn 0.872643 0.356842 -0.333404
vn 0.872643 0.356842 -0.333404
vn 0.872693 0.356754 -0.333365
vn 0.872693 0.356754 -0.333365
vn 0.872693 0.356754 -0.333365
vn 0.333301 0.577319 -0.745395
vn 0.333301 0.577319 -0.745395
vn 0.333301 0.577319 -0.745395
vn 0.333296 0.57735 -0.745373
vn 0.333296 0.57735 -0.745373
vn 0.333296 0.57735 -0.745373
vn -0.872678 0.356865 0.333286
vn -0.872678 0.356865 0.333286
vn -0.872678 0.356865 0.333286
vn -0.872687 0.3568 0.333333
vn -0.872687 0.3568 0.333333
vn -0.872687 0.3568 0.333333
vn -0.127315 0.93419 -0.333288
vn -0.127315 0.93419 -0.333288
vn -0.127315 0.93419 -0.333288
vn -0.127266 0.93419 -0.333307
vn -0.127266 0.93419 -0.333307
vn -0.127266 0.93419 -0.333307
vn -0.745413 0.57726 -0.333363
vn -0.745413 0.57726 -0.333363
vn -0.745413 0.57726 -0.333363
vn -0.745346 0.577376 -0.333312
vn -0.745346 0.577376 -0.333312
vn -0.745346 0.577376 -0.333312
vn 0.666641 0 0.745379
vn 0.666641 -0 0.745379
vn 0.666641 0 0.745379
vn 0.666641 -0 0.745379
vn 0.666641 0 0.745379
vn 0.666641 -0 0.745379
vn 0.745347 -0.577344 0.333364
vn 0.745347 -0.577344 0.333364
vn 0.745347 -0.577344 0.333364
vn 0.745347 -0.577344 0.333364
vn 0.745347 -0.577344 0.333364
vn 0.745347 -0.577344 0.333364
vn -0.127289 -0.934191 -0.333294
vn -0.127289 -0.934191 -0.333294
vn -0.127289 -0.934191 -0.333294
vn -0.127292 -0.934197 -0.333275
vn -0.127292 -0.934197 -0.333275
vn -0.127292 -0.934197 -0.333275
vn -0.333278 0.577279 0.745436
vn -0.333278 0.577279 0.745436
vn -0.333278 0.577279 0.745436
vn -0.333262 0.577395 0.745353
vn -0.333262 0.577395 0.745353
vn -0.333262 0.577395 0.745353
vn -0.872732 -0.356785 0.333233
vn -0.872732 -0.356785 0.333233
vn -0.872732 -0.356785 0.333233
vn -0.872683 -0.356785 0.333361
vn -0.872683 -0.356785 0.333361
vn -0.872683 -0.356785 0.333361
vn 0 -0 1
vn 0 -0 1
vn 0 -0 1
vn 0 0 1
vn 0 -0 1
vn 0 -0 1
vn -0.333289 -0.577299 0.745415
vn -0.333289 -0.577299 0.745415
vn -0.333289 -0.577299 0.745415
vn -0.333358 -0.577327 0.745363
vn -0.333358 -0.577327 0.745363
vn -0.333358 -0.577327 0.745363
vn -0.666641 0 -0.745379
vn -0.666641 0 -0.745379
vn -0.666641 -0 -0.745379
vn -0.666641 -0 -0.745379
vn -0.666641 -0 -0.745379
vn -0.666641 0 -0.745379
vn 0 0 -1
vn 0 0 -1
vn 0 0 -1
vn 0 0 -1
vn 0 0 -1
vn 0 0 -1
vn 0.872673 -0.356813 -0.333357
vn 0.872673 -0.356813 -0.333357
vn 0.872673 -0.356813 -0.333357
vn 0.872673 -0.356813 -0.333357
vn 0.872673 -0.356813 -0.333357
vn 0.872673 -0.356813 -0.333357
vn -0.745392 -0.577315 -0.333314
vn -0.745392 -0.577315 -0.333314
vn -0.745392 -0.577315 -0.333314
vn -0.745397 -0.577323 -0.33329
vn -0.745397 -0.577323 -0.33329
vn -0.745397 -0.577323 -0.33329
vn 0.333358 -0.577327 -0.745363
vn 0.333358 -0.577327 -0.745363
vn 0.333358 -0.577327 -0.745363
vn 0.333289 -0.577299 -0.745415
vn 0.333289 -0.577299 -0.745415
vn 0.333289 -0.577299 -0.745415

# Mesh '<STL_BINARY>' with 120 faces
g <STL_BINARY>
usemtl DefaultMaterial
f  1//1 2//2 3//3
f  4//4 5//5 6//6
f  7//7 8//8 9//9
f  10//10 11//11 12//12
f  13//13 14//14 15//15
f  16//16 17//17 18//18
f  19//19 20//20 21//21
f  22//22 23//23 24//24
f  25//25 26//26 27//27
f  28//28 29//29 30//30
f  31//31 32//32 33//33
f  34//34 35//35 36//36
f  37//37 38//38 39//39
f  40//40 41//41 42//42
f  43//43 44//44 45//45
f  46//46 47//47 48//48
f  49//49 50//50 51//51
f  52//52 53//53 54//54
f  55//55 56//56 57//57
f  58//58 59//59 60//60
f  61//61 62//62 63//63
f  64//64 65//65 66//66
f  67//67 68//68 69//69
f  70//70 71//71 72//72
f  73//73 74//74 75//75
f  76//76 77//77 78//78
f  79//79 80//80 81//81
f  82//82 83//83 84//84
f  85//85 86//86 87//87
f  88//88 89//89 90//90
f  91//91 92//92 93//93
f  94//94 95//95 96//96
f  97//97 98//98 99//99
f  100//100 101//101 102//102
f  103//103 104//104 105//105
f  106//106 107//107 108//108
f  109//109 110//110 111//111
f  112//112 113//113 114//114
f  115//115 116//116 117//117
f  118//118 119//119 120//120
f  121//121 122//122 123//123
f  124//124 125//125 126//126
f  127//127 128//128 129//129
f  130//130 131//131 132//132
f  133//133 134//134 135//135
f  136//136 137//137 138//138
f  139//139 140//140 141//141
f  142//142 143//143 144//144
f  145//145 146//146 147//147
f  148//148 149//149 150//150
f  151//151 152//152 153//153
f  154//154 155//155 156//156
f  157//157 158//158 159//159
f  160//160 161//161 162//162
f  163//163 164//164 165//165
f  166//166 167//167 168//168
f  169//169 170//170 171//171
f  172//172 173//173 174//174
f  175//175 176//176 177//177
f  178//178 179//179 180//180
f  181//181 182//182 183//183
f  184//184 185//185 186//186
f  187//187 188//188 189//189
f  190//190 191//191 192//192
f  193//193 194//194 195//195
f  196//196 197//197 198//198
f  199//199 200//200 201//201
f  202//202 203//203 204//204
f  205//205 206//206 207//207
f  208//208 209//209 210//210
f  211//211 212//212 213//213
f  214//214 215//215 216//216
f  217//217 218//218 219//219
f  220//220 221//221 222//222
f  223//223 224//224 225//225
f  226//226 227//227 228//228
f  229//229 230//230 231//231
f  232//232 233//233 234//234
f  235//235 236//236 237//237
f  238//238 239//239 240//240
f  241//241 242//242 243//243
f  244//244 245//245 246//246
f  247//247 248//248 249//249
f  250//250 251//251 252//252
f  253//253 254//254 255//255
f  256//256 257//257 258//258
f  259//259 260//260 261//261
f  262//262 263//263 264//264
f  265//265 266//266 267//267
f  268//268 269//269 270//270
f  271//271 272//272 273//273
f  274//274 275//275 276//276
f  277//277 278//278 279//279
f  280//280 281//281 282//282
f  283//283 284//284 285//285
f  286//286 287//287 288//288
f  289//289 290//290 291//291
f  292//292 293//293 294//294
f  295//295 296//296 297//297
f  298//298 299//299 300//300
f  301//301 302//302 303//303
f  304//304 305//305 306//306
f  307//307 308//308 309//309
f  310//310 311//311 312//312
f  313//313 314//314 315//315
f  316//316 317//317 318//318
f  319//319 320//320 321//321
f  322//322 323//323 324//324
f  325//325 326//326 327//327
f  328//328 329//329 330//330
f  331//331 332//332 333//333
f  334//334 335//335 336//336
f  337//337 338//338 339//339
f  340//340 341//341 342//342
f  343//343 344//344 345//345
f  346//346 347//347 348//348
f  349//349 350//350 351//351
f  352//352 353//353 354//354
f  355//355 356//356 357//357
f  358//358 359//359 360//360

